# xmcd CD database file
#
# Track frame offsets:
#	150
#	15244
#	49549
#	98757
#	140687
#	172784
#	224056
#
# Disc length: 3296 seconds
#
# Revision: 0
# Processed by: cddbd v1.5.1PL0 Copyright (c) Steve Scherf et al.
# Submitted via: CDex 1.51
#
DISCID=550cde07
DTITLE=Maggy Scott Trio - Live at the »Cafe Art«
DYEAR=1996
DGENRE=Jazz
TTITLE0=Something About Us
TTITLE1=A Night in Tunisia
TTITLE2=All Blues
TTITLE3=New School Blues
TTITLE4=Mag's Funk
TTITLE5=No Strange Things
TTITLE6=Stanley's Tune
EXTD=YEAR: 1996
EXTT0=
EXTT1=
EXTT2=
EXTT3=
EXTT4=
EXTT5=
EXTT6=
PLAYORDER=
